<mxfile host="app.diagrams.net" modified="2023-03-28T10:13:33.468Z" agent="Mozilla/5.0 (Windows NT 10.0; Win64; x64; rv:109.0) Gecko/20100101 Firefox/111.0" etag="qzh2H3_RGXlmfRSgQoq5" version="21.1.1" type="google">
  <diagram id="C5RBs43oDa-KdzZeNtuy" name="Page-1">
    <mxGraphModel grid="1" page="1" gridSize="10" guides="1" tooltips="1" connect="1" arrows="1" fold="1" pageScale="1" pageWidth="827" pageHeight="1169" math="0" shadow="0">
      <root>
        <mxCell id="WIyWlLk6GJQsqaUBKTNV-0" />
        <mxCell id="WIyWlLk6GJQsqaUBKTNV-1" parent="WIyWlLk6GJQsqaUBKTNV-0" />
        <mxCell id="AtxcrGBl7O9khGKJAv3k-14" style="edgeStyle=orthogonalEdgeStyle;rounded=0;orthogonalLoop=1;jettySize=auto;html=1;exitX=0.5;exitY=1;exitDx=0;exitDy=0;entryX=0.5;entryY=0;entryDx=0;entryDy=0;" edge="1" parent="WIyWlLk6GJQsqaUBKTNV-1" source="WIyWlLk6GJQsqaUBKTNV-3" target="AtxcrGBl7O9khGKJAv3k-13">
          <mxGeometry relative="1" as="geometry" />
        </mxCell>
        <mxCell id="AtxcrGBl7O9khGKJAv3k-30" style="edgeStyle=orthogonalEdgeStyle;rounded=0;orthogonalLoop=1;jettySize=auto;html=1;entryX=0;entryY=0.5;entryDx=0;entryDy=0;" edge="1" parent="WIyWlLk6GJQsqaUBKTNV-1" source="WIyWlLk6GJQsqaUBKTNV-3" target="AtxcrGBl7O9khGKJAv3k-29">
          <mxGeometry relative="1" as="geometry" />
        </mxCell>
        <mxCell id="WIyWlLk6GJQsqaUBKTNV-3" value="&lt;div&gt;Φανάρι μεγάλου δρόμου: Πράσινο&lt;/div&gt;&lt;div&gt;Φανάρι πεζών: Κόκκινο&lt;/div&gt;&lt;div&gt;Φανάρι τραμ: Κόκκινο&lt;br&gt;&lt;/div&gt;" style="rounded=1;whiteSpace=wrap;html=1;fontSize=12;glass=0;strokeWidth=1;shadow=0;" vertex="1" parent="WIyWlLk6GJQsqaUBKTNV-1">
          <mxGeometry x="110" y="100" width="200" height="80" as="geometry" />
        </mxCell>
        <mxCell id="AtxcrGBl7O9khGKJAv3k-22" value="" style="edgeStyle=orthogonalEdgeStyle;rounded=0;orthogonalLoop=1;jettySize=auto;html=1;entryX=1;entryY=0.5;entryDx=0;entryDy=0;" edge="1" parent="WIyWlLk6GJQsqaUBKTNV-1" source="l5k74pO5Fn1SWW0IyM2e-6" target="AtxcrGBl7O9khGKJAv3k-23">
          <mxGeometry relative="1" as="geometry">
            <mxPoint x="-20" y="610" as="targetPoint" />
          </mxGeometry>
        </mxCell>
        <mxCell id="l5k74pO5Fn1SWW0IyM2e-6" value="&lt;div&gt;&lt;b&gt;Για χρονικό διάστημα Τ2&lt;/b&gt;&lt;br&gt;&lt;/div&gt;&lt;div&gt;Φανάρι μεγάλου δρόμου: Κόκκινο&lt;/div&gt;&lt;div&gt;Φανάρι πεζών: Πράσινο&lt;br&gt;&lt;/div&gt;&lt;div&gt;Φανάρι τραμ: Κόκκινο&lt;br&gt;&lt;/div&gt;" style="rounded=1;whiteSpace=wrap;html=1;fontSize=12;glass=0;strokeWidth=1;shadow=0;" vertex="1" parent="WIyWlLk6GJQsqaUBKTNV-1">
          <mxGeometry x="115" y="570" width="190" height="80" as="geometry" />
        </mxCell>
        <mxCell id="AtxcrGBl7O9khGKJAv3k-36" style="edgeStyle=orthogonalEdgeStyle;rounded=0;orthogonalLoop=1;jettySize=auto;html=1;" edge="1" parent="WIyWlLk6GJQsqaUBKTNV-1" source="AtxcrGBl7O9khGKJAv3k-1" target="WIyWlLk6GJQsqaUBKTNV-3">
          <mxGeometry relative="1" as="geometry">
            <mxPoint x="210" y="100" as="targetPoint" />
            <Array as="points">
              <mxPoint x="715" y="10" />
              <mxPoint x="210" y="10" />
            </Array>
          </mxGeometry>
        </mxCell>
        <mxCell id="AtxcrGBl7O9khGKJAv3k-1" value="&lt;div&gt;Φανάρι μεγάλου δρόμου: Κόκκινο&lt;/div&gt;&lt;div&gt;Φανάρι πεζών: Πράσινο&lt;/div&gt;&lt;div&gt;Φανάρι τραμ: Πράσινο&lt;br&gt;&lt;/div&gt;" style="rounded=1;whiteSpace=wrap;html=1;fontSize=12;glass=0;strokeWidth=1;shadow=0;" vertex="1" parent="WIyWlLk6GJQsqaUBKTNV-1">
          <mxGeometry x="620" y="100" width="190" height="80" as="geometry" />
        </mxCell>
        <mxCell id="AtxcrGBl7O9khGKJAv3k-3" value="&lt;div&gt;Interrupt&lt;/div&gt;&lt;div&gt;Πατήθηκε το κουμπί για τους πεζούς&lt;br&gt;&lt;/div&gt;" style="text;html=1;align=center;verticalAlign=middle;resizable=0;points=[];autosize=1;strokeColor=none;fillColor=none;rotation=90;" vertex="1" parent="WIyWlLk6GJQsqaUBKTNV-1">
          <mxGeometry x="140" y="280" width="220" height="40" as="geometry" />
        </mxCell>
        <mxCell id="AtxcrGBl7O9khGKJAv3k-10" style="edgeStyle=orthogonalEdgeStyle;rounded=0;orthogonalLoop=1;jettySize=auto;html=1;exitX=0;exitY=0.5;exitDx=0;exitDy=0;entryX=0;entryY=0.5;entryDx=0;entryDy=0;" edge="1" parent="WIyWlLk6GJQsqaUBKTNV-1" source="AtxcrGBl7O9khGKJAv3k-23" target="WIyWlLk6GJQsqaUBKTNV-3">
          <mxGeometry relative="1" as="geometry">
            <mxPoint x="-160" y="610" as="sourcePoint" />
            <mxPoint x="100" y="140" as="targetPoint" />
            <Array as="points">
              <mxPoint x="-225" y="610" />
              <mxPoint x="-225" y="140" />
            </Array>
          </mxGeometry>
        </mxCell>
        <mxCell id="AtxcrGBl7O9khGKJAv3k-15" style="edgeStyle=orthogonalEdgeStyle;rounded=0;orthogonalLoop=1;jettySize=auto;html=1;entryX=0.5;entryY=0;entryDx=0;entryDy=0;" edge="1" parent="WIyWlLk6GJQsqaUBKTNV-1" source="AtxcrGBl7O9khGKJAv3k-13" target="l5k74pO5Fn1SWW0IyM2e-6">
          <mxGeometry relative="1" as="geometry" />
        </mxCell>
        <mxCell id="AtxcrGBl7O9khGKJAv3k-17" style="edgeStyle=orthogonalEdgeStyle;rounded=0;orthogonalLoop=1;jettySize=auto;html=1;entryX=0;entryY=0.5;entryDx=0;entryDy=0;" edge="1" parent="WIyWlLk6GJQsqaUBKTNV-1" source="AtxcrGBl7O9khGKJAv3k-13" target="WIyWlLk6GJQsqaUBKTNV-3">
          <mxGeometry relative="1" as="geometry">
            <Array as="points">
              <mxPoint x="50" y="460" />
              <mxPoint x="50" y="140" />
            </Array>
          </mxGeometry>
        </mxCell>
        <mxCell id="AtxcrGBl7O9khGKJAv3k-13" value="Έχει περάσει Τ3 χρόνος από το προηγούμενο πάτημα του κουμπιού;" style="rhombus;whiteSpace=wrap;html=1;" vertex="1" parent="WIyWlLk6GJQsqaUBKTNV-1">
          <mxGeometry x="140" y="390" width="140" height="140" as="geometry" />
        </mxCell>
        <mxCell id="AtxcrGBl7O9khGKJAv3k-16" value="ΝΑΙ" style="text;html=1;align=center;verticalAlign=middle;resizable=0;points=[];autosize=1;strokeColor=none;fillColor=none;" vertex="1" parent="WIyWlLk6GJQsqaUBKTNV-1">
          <mxGeometry x="220" y="530" width="40" height="30" as="geometry" />
        </mxCell>
        <mxCell id="AtxcrGBl7O9khGKJAv3k-18" value="ΟΧΙ" style="text;html=1;align=center;verticalAlign=middle;resizable=0;points=[];autosize=1;strokeColor=none;fillColor=none;" vertex="1" parent="WIyWlLk6GJQsqaUBKTNV-1">
          <mxGeometry x="60" y="220" width="40" height="30" as="geometry" />
        </mxCell>
        <mxCell id="AtxcrGBl7O9khGKJAv3k-24" style="edgeStyle=orthogonalEdgeStyle;rounded=0;orthogonalLoop=1;jettySize=auto;html=1;exitX=0.5;exitY=1;exitDx=0;exitDy=0;entryX=0.5;entryY=1;entryDx=0;entryDy=0;" edge="1" parent="WIyWlLk6GJQsqaUBKTNV-1" source="AtxcrGBl7O9khGKJAv3k-23" target="l5k74pO5Fn1SWW0IyM2e-6">
          <mxGeometry relative="1" as="geometry" />
        </mxCell>
        <mxCell id="AtxcrGBl7O9khGKJAv3k-23" value="Έχει περάσει Τ2 χρόνος από τη στιγμή που πατήθηκε το κουμπί;" style="rhombus;whiteSpace=wrap;html=1;" vertex="1" parent="WIyWlLk6GJQsqaUBKTNV-1">
          <mxGeometry x="-100" y="540" width="140" height="140" as="geometry" />
        </mxCell>
        <mxCell id="AtxcrGBl7O9khGKJAv3k-25" value="ΟΧΙ" style="text;html=1;align=center;verticalAlign=middle;resizable=0;points=[];autosize=1;strokeColor=none;fillColor=none;" vertex="1" parent="WIyWlLk6GJQsqaUBKTNV-1">
          <mxGeometry x="70" y="670" width="40" height="30" as="geometry" />
        </mxCell>
        <mxCell id="AtxcrGBl7O9khGKJAv3k-26" value="ΝΑΙ" style="text;html=1;align=center;verticalAlign=middle;resizable=0;points=[];autosize=1;strokeColor=none;fillColor=none;" vertex="1" parent="WIyWlLk6GJQsqaUBKTNV-1">
          <mxGeometry x="-220" y="330" width="40" height="30" as="geometry" />
        </mxCell>
        <mxCell id="AtxcrGBl7O9khGKJAv3k-31" style="edgeStyle=orthogonalEdgeStyle;rounded=0;orthogonalLoop=1;jettySize=auto;html=1;exitX=1;exitY=0.5;exitDx=0;exitDy=0;entryX=0;entryY=0.5;entryDx=0;entryDy=0;" edge="1" parent="WIyWlLk6GJQsqaUBKTNV-1" source="AtxcrGBl7O9khGKJAv3k-29" target="AtxcrGBl7O9khGKJAv3k-1">
          <mxGeometry relative="1" as="geometry" />
        </mxCell>
        <mxCell id="AtxcrGBl7O9khGKJAv3k-32" style="edgeStyle=orthogonalEdgeStyle;rounded=0;orthogonalLoop=1;jettySize=auto;html=1;entryX=0.5;entryY=0;entryDx=0;entryDy=0;" edge="1" parent="WIyWlLk6GJQsqaUBKTNV-1" source="AtxcrGBl7O9khGKJAv3k-29" target="WIyWlLk6GJQsqaUBKTNV-3">
          <mxGeometry relative="1" as="geometry">
            <Array as="points">
              <mxPoint x="460" y="50" />
              <mxPoint x="210" y="50" />
            </Array>
          </mxGeometry>
        </mxCell>
        <mxCell id="AtxcrGBl7O9khGKJAv3k-29" value="Έχει ολοκληρωθεί ένας κύκλος ρολογιού περιόδου Τ1;" style="rhombus;whiteSpace=wrap;html=1;" vertex="1" parent="WIyWlLk6GJQsqaUBKTNV-1">
          <mxGeometry x="390" y="70" width="140" height="140" as="geometry" />
        </mxCell>
        <mxCell id="AtxcrGBl7O9khGKJAv3k-33" value="ΟΧΙ" style="text;html=1;align=center;verticalAlign=middle;resizable=0;points=[];autosize=1;strokeColor=none;fillColor=none;" vertex="1" parent="WIyWlLk6GJQsqaUBKTNV-1">
          <mxGeometry x="310" y="50" width="40" height="30" as="geometry" />
        </mxCell>
        <mxCell id="AtxcrGBl7O9khGKJAv3k-34" value="ΝΑΙ" style="text;html=1;align=center;verticalAlign=middle;resizable=0;points=[];autosize=1;strokeColor=none;fillColor=none;" vertex="1" parent="WIyWlLk6GJQsqaUBKTNV-1">
          <mxGeometry x="550" y="105" width="40" height="30" as="geometry" />
        </mxCell>
      </root>
    </mxGraphModel>
  </diagram>
</mxfile>
